<?xml version="1.0" standalone="no"?>
<!DOCTYPE svg PUBLIC "-//W3C//DTD SVG 20010904//EN"
 "http://www.w3.org/TR/2001/REC-SVG-20010904/DTD/svg10.dtd">
<svg version="1.0" xmlns="http://www.w3.org/2000/svg"
 width="240.000000pt" height="240.000000pt" viewBox="0 0 240.000000 240.000000"
 preserveAspectRatio="xMidYMid meet">
<metadata>
Created by potrace 1.14, written by Peter Selinger 2001-2017
</metadata>
<g transform="translate(0.000000,240.000000) scale(0.100000,-0.100000)"
fill="#000000" stroke="none">
<path d="M1098 2150 c-63 -12 -166 -69 -217 -121 -173 -175 -173 -444 -1 -616
52 -52 145 -105 208 -118 28 -6 37 -2 69 30 19 19 34 37 32 38 -2 2 -17 11
-32 21 -58 36 -72 123 -29 176 21 26 85 49 118 42 25 -5 71 -43 89 -75 9 -16
13 -15 39 13 l28 30 -28 11 c-82 29 -93 155 -19 203 32 21 96 24 129 7 71 -38
75 -158 7 -199 l-30 -18 40 -43 c22 -23 46 -40 54 -37 26 10 83 210 70 249 -2
7 -6 30 -9 52 -14 114 -87 224 -195 298 -75 50 -222 76 -323 57z m257 -116
c70 -33 83 -130 26 -188 -25 -25 -38 -30 -80 -30 -44 -1 -55 3 -83 32 -28 28
-33 39 -33 81 0 94 84 146 170 105z m-263 -51 c103 -91 -1 -257 -124 -199 -92
44 -90 176 4 216 33 14 96 5 120 -17z m-51 -276 c38 -26 64 -84 55 -122 -11
-45 -57 -86 -102 -92 -107 -14 -176 106 -107 187 46 55 99 64 154 27z"/>
<path d="M1769 1683 c-44 -93 -97 -203 -116 -246 l-37 -78 -93 93 -93 93 -382
-382 -382 -382 292 -292 293 -292 25 24 c15 13 187 184 384 380 l358 357 -74
73 c-56 56 -71 76 -62 86 6 7 14 13 18 13 12 0 438 209 443 217 2 4 -108 119
-245 256 l-249 247 -80 -167z"/>
<path d="M487 1524 c-1 -2 -18 -6 -37 -9 -104 -17 -244 -125 -293 -227 -41
-84 -46 -113 -44 -216 2 -91 5 -104 40 -174 77 -158 235 -252 407 -243 69 3
140 20 140 34 0 4 -12 19 -27 33 -26 25 -31 26 -68 16 -33 -9 -47 -8 -76 6
-116 55 -76 226 53 226 40 0 105 -49 110 -82 3 -20 5 -20 36 11 l33 33 -33 17
c-74 37 -88 135 -26 193 55 51 159 29 187 -39 l12 -30 38 36 c36 34 37 37 29
81 -26 142 -148 273 -293 316 -52 15 -178 27 -188 18z m218 -118 c102 -43 87
-202 -22 -222 -46 -9 -77 1 -112 37 -54 54 -39 136 33 180 37 23 56 24 101 5z
m-279 -42 c61 -29 85 -115 49 -170 -36 -56 -133 -68 -181 -23 -67 63 -37 179
51 202 35 9 46 7 81 -9z m-20 -292 c36 -26 55 -83 43 -125 -10 -37 -59 -86
-87 -88 -82 -6 -142 40 -144 110 -3 99 109 161 188 103z"/>
</g>
</svg>
